<svg xmlns="http://www.w3.org/2000/svg" viewBox="0 0 360.86 70.98"><defs><style>.cls-1{fill:#80bc00;}.cls-1,.cls-2,.cls-4{fill-rule:evenodd;}.cls-2,.cls-3{fill:#4a4f54;}.cls-4{fill:#3d7cc9;}</style></defs><g id="Layer_2" data-name="Layer 2"><g id="Layer_1-2" data-name="Layer 1"><path class="cls-1" d="M119.62,70.64c-1.39-2.07-4.06-4.7-5.51-6.52l-6-6c-7.81-7.81-19.57-16-30-18.3a30.56,30.56,0,0,0-11-.33c-2,.38-7.7,2.08-8.73,3.49,4.89.41,12,4.27,16,7.15a64.72,64.72,0,0,1,6.33,5.31l4.6,5A99.2,99.2,0,0,1,92.7,70.64Z"/><path class="cls-2" d="M124.79,57.16h5.38a15.23,15.23,0,0,1,2.39.14,3.62,3.62,0,0,1,1.41.55A3.54,3.54,0,0,1,135,59a3.1,3.1,0,0,1,.42,1.59,3.2,3.2,0,0,1-.51,1.76,3.1,3.1,0,0,1-1.39,1.19,3.59,3.59,0,0,1,1.9,1.24,3.29,3.29,0,0,1,.66,2,4,4,0,0,1-.43,1.8A3.68,3.68,0,0,1,134.49,70a3.88,3.88,0,0,1-1.83.64c-.45,0-1.55.08-3.29.09h-4.58V57.16Zm2.72,2.26h0v3.15h1.78a19.75,19.75,0,0,0,2,0,1.75,1.75,0,0,0,1.1-.48,1.43,1.43,0,0,0,.4-1.07,1.49,1.49,0,0,0-.35-1,1.54,1.54,0,0,0-1-.48c-.27,0-1.05,0-2.33,0Zm0,5.41h0v3.64H130a13.11,13.11,0,0,0,1.86-.08,1.61,1.61,0,0,0,1.37-1.7,1.75,1.75,0,0,0-.29-1,1.65,1.65,0,0,0-.85-.62,9.09,9.09,0,0,0-2.41-.2Z"/><path class="cls-2" d="M145.71,70.76V69.29a3.81,3.81,0,0,1-1.4,1.24,3.94,3.94,0,0,1-1.84.45,3.56,3.56,0,0,1-1.76-.43,2.61,2.61,0,0,1-1.14-1.23,5.53,5.53,0,0,1-.34-2.17V60.91h2.58v4.53A12,12,0,0,0,142,68a1.35,1.35,0,0,0,.51.74,1.56,1.56,0,0,0,1,.28,2,2,0,0,0,1.19-.37,1.87,1.87,0,0,0,.72-.91,11.14,11.14,0,0,0,.19-2.65V60.91h2.58v9.85Z"/><path class="cls-2" d="M150.8,68l2.59-.4a1.92,1.92,0,0,0,.67,1.15,2.22,2.22,0,0,0,1.42.4,2.53,2.53,0,0,0,1.51-.37.85.85,0,0,0,.34-.7.71.71,0,0,0-.18-.49,2.06,2.06,0,0,0-.87-.34,13.77,13.77,0,0,1-4-1.27,2.54,2.54,0,0,1-1.16-2.21,2.74,2.74,0,0,1,1-2.16,4.67,4.67,0,0,1,3.11-.87,5.29,5.29,0,0,1,3,.66,3.31,3.31,0,0,1,1.34,1.95l-2.44.45a1.43,1.43,0,0,0-.59-.88,2.12,2.12,0,0,0-1.25-.31,2.81,2.81,0,0,0-1.46.29.62.62,0,0,0-.29.53.58.58,0,0,0,.25.47,9.28,9.28,0,0,0,2.42.73,7.09,7.09,0,0,1,2.88,1.17,2.39,2.39,0,0,1,.81,1.93A3,3,0,0,1,158.8,70a5,5,0,0,1-3.32,1,5.46,5.46,0,0,1-3.16-.81A3.76,3.76,0,0,1,150.8,68Z"/><path class="cls-2" d="M163.11,59.58V57.16h2.58v2.42Zm0,11.18h0V60.91h2.58v9.85Z"/><path class="cls-2" d="M178.14,70.76h-2.57v-5a7.9,7.9,0,0,0-.17-2.07,1.45,1.45,0,0,0-1.44-1,2,2,0,0,0-1.21.38,1.89,1.89,0,0,0-.73,1,8.68,8.68,0,0,0-.19,2.26v4.46h-2.59V60.91h2.4v1.45a3.93,3.93,0,0,1,3.22-1.67,3.86,3.86,0,0,1,1.57.31,2.5,2.5,0,0,1,1.07.8,2.73,2.73,0,0,1,.5,1.09,7.91,7.91,0,0,1,.14,1.75Z"/><path class="cls-2" d="M187.34,67.63l2.58.43a4.21,4.21,0,0,1-1.57,2.18,4.55,4.55,0,0,1-2.68.74,4.33,4.33,0,0,1-3.77-1.68,5.69,5.69,0,0,1-1-3.4,5.51,5.51,0,0,1,1.26-3.83,4.21,4.21,0,0,1,3.22-1.38,4.33,4.33,0,0,1,3.44,1.45,6.45,6.45,0,0,1,1.2,4.45h-6.48a2.65,2.65,0,0,0,.63,1.8,2,2,0,0,0,1.49.65,1.53,1.53,0,0,0,1-.34,2,2,0,0,0,.62-1.07Zm.15-2.64h0a2.52,2.52,0,0,0-.58-1.72,1.73,1.73,0,0,0-1.34-.59,1.79,1.79,0,0,0-1.4.63,2.36,2.36,0,0,0-.54,1.68Z"/><path class="cls-2" d="M192.18,68l2.59-.4a1.89,1.89,0,0,0,.68,1.15,2.17,2.17,0,0,0,1.41.4,2.55,2.55,0,0,0,1.51-.37.85.85,0,0,0,.34-.7.71.71,0,0,0-.18-.49,2.13,2.13,0,0,0-.87-.34,13.77,13.77,0,0,1-4-1.27,2.55,2.55,0,0,1-1.17-2.21,2.75,2.75,0,0,1,1-2.16,4.66,4.66,0,0,1,3.11-.87,5.29,5.29,0,0,1,3,.66A3.31,3.31,0,0,1,201,63.3l-2.44.45a1.47,1.47,0,0,0-.59-.88,2.1,2.1,0,0,0-1.25-.31,2.81,2.81,0,0,0-1.46.29.62.62,0,0,0-.29.53.58.58,0,0,0,.25.47,9.28,9.28,0,0,0,2.42.73,7.16,7.16,0,0,1,2.88,1.17,2.39,2.39,0,0,1,.81,1.93A3,3,0,0,1,200.18,70a5,5,0,0,1-3.32,1,5.46,5.46,0,0,1-3.16-.81A3.76,3.76,0,0,1,192.18,68Z"/><path class="cls-2" d="M203.58,68l2.59-.4a1.87,1.87,0,0,0,.67,1.15,2.22,2.22,0,0,0,1.42.4,2.53,2.53,0,0,0,1.51-.37.85.85,0,0,0,.34-.7.71.71,0,0,0-.19-.49,2,2,0,0,0-.87-.34,13.89,13.89,0,0,1-4-1.27,2.54,2.54,0,0,1-1.15-2.21,2.74,2.74,0,0,1,1-2.16,4.63,4.63,0,0,1,3.1-.87,5.24,5.24,0,0,1,3,.66,3.37,3.37,0,0,1,1.35,1.95l-2.44.45a1.51,1.51,0,0,0-.59-.88,2.12,2.12,0,0,0-1.25-.31,2.78,2.78,0,0,0-1.46.29.61.61,0,0,0-.3.53.59.59,0,0,0,.26.47,9.28,9.28,0,0,0,2.42.73,7.22,7.22,0,0,1,2.88,1.17,2.39,2.39,0,0,1,.81,1.93A3,3,0,0,1,211.58,70a5,5,0,0,1-3.32,1,5.46,5.46,0,0,1-3.16-.81A3.68,3.68,0,0,1,203.58,68Z"/><path class="cls-2" d="M225.71,66.06l2.65-.26a3.29,3.29,0,0,0,1,2,2.91,2.91,0,0,0,2,.63,3,3,0,0,0,2-.57,1.64,1.64,0,0,0,.67-1.31,1.24,1.24,0,0,0-.28-.82,2.22,2.22,0,0,0-1-.58c-.32-.12-1-.31-2.18-.6a7.45,7.45,0,0,1-3.07-1.34,3.62,3.62,0,0,1-.66-4.69,3.62,3.62,0,0,1,1.69-1.37,6.54,6.54,0,0,1,2.65-.48,5.71,5.71,0,0,1,3.82,1.12,4,4,0,0,1,1.34,3l-2.72.12a2.29,2.29,0,0,0-.75-1.51,2.74,2.74,0,0,0-1.72-.45,3,3,0,0,0-1.85.49,1,1,0,0,0-.44.84,1.07,1.07,0,0,0,.41.83,7.13,7.13,0,0,0,2.5.91,13.48,13.48,0,0,1,2.94,1,3.92,3.92,0,0,1,1.49,1.39,4.14,4.14,0,0,1,.53,2.16,4,4,0,0,1-.64,2.19,3.89,3.89,0,0,1-1.82,1.52,7.61,7.61,0,0,1-2.94.5,5.81,5.81,0,0,1-3.92-1.19A5.22,5.22,0,0,1,225.71,66.06Z"/><path class="cls-2" d="M239.27,65.42a5.47,5.47,0,0,1,.63-2.52,4.52,4.52,0,0,1,1.8-1.85,5.38,5.38,0,0,1,2.6-.64,4.83,4.83,0,0,1,3.63,1.45,5,5,0,0,1,1.42,3.67,5.12,5.12,0,0,1-1.43,3.71,4.82,4.82,0,0,1-3.6,1.46,5.57,5.57,0,0,1-2.56-.6,4.2,4.2,0,0,1-1.86-1.8,6,6,0,0,1-.63-2.88Zm2.65.14h0a3.31,3.31,0,0,0,.69,2.25,2.22,2.22,0,0,0,1.7.78,2.18,2.18,0,0,0,1.69-.78,3.35,3.35,0,0,0,.69-2.27,3.21,3.21,0,0,0-.69-2.22,2.16,2.16,0,0,0-1.69-.79,2.2,2.2,0,0,0-1.7.79A3.25,3.25,0,0,0,241.92,65.56Z"/><rect class="cls-3" x="252.29" y="56.89" width="2.59" height="13.59"/><path class="cls-2" d="M264.88,70.48V69a3.79,3.79,0,0,1-1.41,1.25,4,4,0,0,1-1.83.44,3.53,3.53,0,0,1-1.76-.43,2.64,2.64,0,0,1-1.14-1.22,5.59,5.59,0,0,1-.34-2.18V60.64H261v4.52a13.17,13.17,0,0,0,.14,2.55,1.42,1.42,0,0,0,.52.74,1.6,1.6,0,0,0,1,.27,2,2,0,0,0,1.18-.36,1.91,1.91,0,0,0,.72-.91,10.46,10.46,0,0,0,.2-2.66V60.64h2.58v9.84Z"/><path class="cls-2" d="M275.35,60.64v2.07h-1.76v4a10.69,10.69,0,0,0,.05,1.41.63.63,0,0,0,.23.33.72.72,0,0,0,.44.13,3.08,3.08,0,0,0,1-.26l.22,2a5.08,5.08,0,0,1-2,.38,3.15,3.15,0,0,1-1.26-.23,1.8,1.8,0,0,1-.83-.61,2.39,2.39,0,0,1-.36-1A12.05,12.05,0,0,1,271,67v-4.3h-1.19V60.64H271v-2l2.59-1.52v3.49Z"/><path class="cls-2" d="M278.07,59.29v-2.4h2.58v2.4Zm0,11.19h0V60.64h2.58v9.84Z"/><path class="cls-2" d="M283.63,65.42a5.47,5.47,0,0,1,.63-2.52,4.52,4.52,0,0,1,1.8-1.85,5.39,5.39,0,0,1,2.61-.64,4.82,4.82,0,0,1,3.62,1.45,5,5,0,0,1,1.42,3.67,5.12,5.12,0,0,1-1.43,3.71,4.79,4.79,0,0,1-3.6,1.46,5.57,5.57,0,0,1-2.56-.6,4.26,4.26,0,0,1-1.86-1.8,6,6,0,0,1-.63-2.88Zm2.65.14h0a3.31,3.31,0,0,0,.69,2.25,2.22,2.22,0,0,0,1.7.78,2.18,2.18,0,0,0,1.69-.78,3.35,3.35,0,0,0,.69-2.27,3.21,3.21,0,0,0-.69-2.22,2.16,2.16,0,0,0-1.69-.79,2.2,2.2,0,0,0-1.7.79A3.25,3.25,0,0,0,286.28,65.56Z"/><path class="cls-2" d="M305.54,70.48H303v-5a7.9,7.9,0,0,0-.17-2.07,1.45,1.45,0,0,0-.53-.72,1.55,1.55,0,0,0-.91-.27,2,2,0,0,0-1.2.38,1.79,1.79,0,0,0-.73,1,8.61,8.61,0,0,0-.2,2.26v4.46h-2.58V60.64H299v1.44a3.9,3.9,0,0,1,3.22-1.67,3.78,3.78,0,0,1,1.56.31,2.65,2.65,0,0,1,1.07.79,2.77,2.77,0,0,1,.51,1.1,8.64,8.64,0,0,1,.14,1.75Z"/><path class="cls-2" d="M308.17,67.67l2.59-.4a2,2,0,0,0,.68,1.16,2.27,2.27,0,0,0,1.41.4,2.58,2.58,0,0,0,1.51-.37.85.85,0,0,0,.35-.7.7.7,0,0,0-.19-.49,2.07,2.07,0,0,0-.86-.34,14.12,14.12,0,0,1-4-1.28,2.54,2.54,0,0,1-1.16-2.22,2.76,2.76,0,0,1,1-2.15,4.67,4.67,0,0,1,3.11-.87,5.37,5.37,0,0,1,3,.66A3.31,3.31,0,0,1,317,63l-2.43.45a1.58,1.58,0,0,0-.59-.88,2.2,2.2,0,0,0-1.25-.31,2.85,2.85,0,0,0-1.47.29.64.64,0,0,0-.29.53.6.6,0,0,0,.26.48,10.06,10.06,0,0,0,2.41.73,7.23,7.23,0,0,1,2.89,1.16,2.41,2.41,0,0,1,.81,1.94,3,3,0,0,1-1.13,2.33,4.91,4.91,0,0,1-3.32,1,5.4,5.4,0,0,1-3.16-.81A3.76,3.76,0,0,1,308.17,67.67Z"/><path class="cls-1" d="M159.83,45.85a13,13,0,0,1-5.41,2.3,28.4,28.4,0,0,1-6.89.81q-10.56,0-16.65-6.5-5.94-6.48-5.94-17.85t5.94-18Q137.26,0,147.53,0q10.13,0,16.62,6.62,6.09,6.78,6.09,18A31.06,31.06,0,0,1,169,33.54a19.09,19.09,0,0,1-3.79,7.17l5.14,4.86-2.57,2.58A3.37,3.37,0,0,1,165,49.3a4.59,4.59,0,0,1-2.44-1l-2.7-2.43Zm-6.76-6.35h0l-4.86-4.74L149.82,33a4.71,4.71,0,0,1,2.91-1.49,4.23,4.23,0,0,1,3.05.54l2.7,2.16a20.18,20.18,0,0,0,1.63-4.33c.07-.8.19-1.63.32-2.49a16.27,16.27,0,0,0,.21-2.78q0-7.58-3.51-12a11.87,11.87,0,0,0-9.6-4.2q-6.22,0-9.61,4.2c-2.26,2.79-3.38,6.81-3.38,12s1.12,9.19,3.38,11.91,5.46,4.19,9.61,4.19a12.3,12.3,0,0,0,3-.27A15.72,15.72,0,0,0,153.07,39.5Z"/><path class="cls-1" d="M211.23,10.62V31.71q0,9.6-5,12.57a21,21,0,0,1-11,3A21.73,21.73,0,0,1,184.66,44c-3.21-2-4.8-6.08-4.8-12.3V10.62h9.47v23a5.66,5.66,0,0,0,1.89,4.74,6.9,6.9,0,0,0,4.33,1.48,7.18,7.18,0,0,0,4.4-1.48,5.58,5.58,0,0,0,2-4.74V15.21A4.55,4.55,0,0,1,203.19,12a4.35,4.35,0,0,1,3.31-1.34Z"/><path class="cls-1" d="M243.69,45.1a17.07,17.07,0,0,1-6,1.82,52.46,52.46,0,0,1-5.61.34,14.24,14.24,0,0,1-8.52-2.63c-2.44-1.77-3.65-4.66-3.65-8.73,0-3.78,1.1-6.49,3.32-8.11a19,19,0,0,1,8.45-3.25,8.26,8.26,0,0,0,1.62-.2c.62-.13,1.35-.25,2.16-.34q6-.81,6-3.51a2.56,2.56,0,0,0-2.1-2.63,13.59,13.59,0,0,0-3.86-.63,9.86,9.86,0,0,0-3.38.55,3.66,3.66,0,0,0-2.16,2h-9.06a10.38,10.38,0,0,1,3.78-6.89c2.44-2.09,5.91-3.12,10.42-3.12q7.58,0,11.36,2.57a8.68,8.68,0,0,1,3.92,7.57V32.25c0,3.61-.66,6.43-2,8.45a12.09,12.09,0,0,1-4.66,4.4Zm-2.17-16.63h0a25.46,25.46,0,0,1-5.28,1.75l-3.1.68a7.89,7.89,0,0,0-3.52,1.76,5.48,5.48,0,0,0-1,3,4.41,4.41,0,0,0,1.22,3.25A5.12,5.12,0,0,0,233.4,40a8.1,8.1,0,0,0,6-2.17,8.07,8.07,0,0,0,2.16-5.95Z"/><path class="cls-1" d="M259.84.07h4.87A4.56,4.56,0,0,1,268,1.35a4.19,4.19,0,0,1,1.35,3.17V46.59h-9.47Z"/><path class="cls-1" d="M278.63.07h4.88a4.41,4.41,0,0,1,3.23,1.35,4.42,4.42,0,0,1,1.36,3.23V7.51h-9.47V.07Zm0,10.55h4.88A4.4,4.4,0,0,1,286.74,12a4.47,4.47,0,0,1,1.36,3.25V46.59h-9.47Z"/><path class="cls-1" d="M312.51,46.59a72,72,0,0,1-9.67-.14q-5.2-.41-5.21-6.63V.07h4.87a4.26,4.26,0,0,1,3.11,1.35A4.42,4.42,0,0,1,307,4.65v6.09h5.54v1.91a4.32,4.32,0,0,1-1.36,3.3,4.48,4.48,0,0,1-3.23,1.28H307v20c0,1.53.9,2.3,2.7,2.3h2.84Z"/><path class="cls-1" d="M325.38,70.76l0-8.58h2.86A7.26,7.26,0,0,0,333,60.76c1.14-1,3.74-8.2,3-10.31l-14-39.87h11.58l8.12,28.29,7.08-24.68c.61-2.41,2.21-3.61,4.82-3.61h7.21l-17.72,51.3c-1.2,3.32-2.69,5.68-4.5,7.08-1.81,1.2-4.76,1.81-8.89,1.81h-4.37Z"/><path class="cls-4" d="M75,55.28s1.75-2,13,15.56l-50-.62s-7.13-.13-17.21-4.65c0,0-18.11-7.24-20.49-17.71,0,0-2.36-7.8,7.37-13.84L44.75,11s7.75-5.06,21-2.59c0,0,11.69,2.19,25,11.91,0,0,9.15,4.32,12.68,29.12,0,0-9.38-9.83-23-13.61,0,0-4.65-13.25-16.66-14.66,0,0-13.07-1.45-19.61,13.41,0,0-7.22,12.37,15.91,18L73,55.09A17.12,17.12,0,0,1,75,55.28Z"/></g></g></svg>